<svg xmlns="http://www.w3.org/2000/svg" xmlns:xlink="http://www.w3.org/1999/xlink" viewBox="0 0 71 31"><g id="ss4277750639_1"><path d="M 0 30.54 L 0 0 L 70.68 0 L 70.68 30.54 Z" fill="transparent"></path><path d="M 17.71 26.41 C 17.22 26.41 16.74 26.35 16.25 26.23 C 15.76 26.11 15.34 25.97 14.99 25.81 C 13.99 25.35 13.06 24.66 12.2 23.74 C 11.34 22.82 10.64 21.79 10.11 20.64 C 9.58 19.49 9.32 18.37 9.32 17.26 C 9.32 16.64 9.45 16.33 9.73 16.33 C 9.92 16.33 10.07 16.41 10.18 16.57 C 10.61 17.25 11.22 17.58 12 17.58 C 13.05 17.58 13.58 17.03 13.58 15.92 C 13.53 15.38 13.38 14.96 13.13 14.66 C 12.75 14.23 12.31 14.01 11.79 14.01 C 11.03 14.01 10.25 14.46 9.44 15.35 C 8.71 16.16 8.05 17.19 7.45 18.43 C 7.29 18.75 7.11 19.15 6.9 19.62 C 6.7 20.09 6.47 20.64 6.23 21.26 C 5.93 22.04 5.66 22.43 5.42 22.43 L 5.4 22.43 C 5.21 22.43 5.12 22.25 5.12 21.9 C 5.12 21.66 5.19 21.16 5.34 20.4 C 5.49 19.64 5.68 18.79 5.91 17.83 C 6.14 16.87 6.36 15.97 6.58 15.14 C 6.8 14.3 6.99 13.68 7.15 13.28 C 5.75 13.33 4.57 12.92 3.63 12.04 C 2.67 11.17 2.2 9.99 2.2 8.51 C 2.2 7.24 2.55 6.13 3.25 5.17 C 3.95 4.21 4.88 3.73 6.04 3.73 C 6.82 3.73 7.52 3.93 8.13 4.32 C 8.74 4.71 9.04 5.38 9.04 6.32 C 9.04 7.29 8.75 8.01 8.17 8.49 C 7.59 8.96 6.99 9.2 6.37 9.2 C 5.91 9.2 5.49 9.07 5.11 8.8 C 4.73 8.52 4.54 8.13 4.54 7.62 C 4.54 7.32 4.59 7.05 4.7 6.81 C 4.78 6.59 4.9 6.49 5.07 6.49 C 5.26 6.49 5.3 6.63 5.19 6.89 C 5.11 7.13 5.07 7.33 5.07 7.49 C 5.07 7.84 5.19 8.11 5.43 8.3 C 5.67 8.49 5.97 8.58 6.32 8.58 C 6.78 8.58 7.24 8.4 7.7 8.05 C 8.16 7.7 8.39 7.15 8.39 6.39 C 8.39 5.74 8.17 5.23 7.74 4.85 C 7.31 4.48 6.79 4.3 6.16 4.3 C 5.33 4.3 4.61 4.66 4 5.39 C 3.39 6.12 3.09 7.12 3.09 8.39 C 3.09 9.2 3.29 9.94 3.68 10.6 C 4.07 11.26 4.59 11.77 5.24 12.14 C 5.89 12.5 6.6 12.66 7.39 12.61 C 8.47 9.88 9.6 7.68 10.79 6.01 C 12.17 4.15 13.57 3.22 15 3.22 C 16.05 3.22 16.58 3.76 16.58 4.84 C 16.58 5.65 16.24 6.6 15.57 7.67 C 15.22 8.21 14.8 8.74 14.31 9.25 C 13.82 9.76 13.27 10.28 12.65 10.79 C 11.95 11.36 11.3 11.8 10.71 12.11 C 10.12 12.42 9.44 12.76 8.69 13.14 C 8.42 13.73 8.2 14.33 8.02 14.92 C 7.84 15.51 7.7 16.2 7.6 16.99 C 7.9 16.61 8.15 16.27 8.37 15.98 C 8.59 15.68 8.78 15.44 8.94 15.25 C 9.24 14.85 9.47 14.58 9.63 14.44 C 10.41 13.71 11.24 13.35 12.1 13.35 C 12.51 13.35 12.88 13.42 13.21 13.55 C 13.55 13.69 13.85 13.91 14.12 14.24 C 14.55 14.75 14.77 15.4 14.77 16.18 C 14.77 16.96 14.55 17.57 14.12 18 C 13.66 18.54 13.01 18.81 12.18 18.81 C 11.96 18.81 11.69 18.74 11.37 18.59 C 11.05 18.44 10.82 18.27 10.68 18.08 C 10.79 18.62 11.01 19.29 11.35 20.08 C 11.69 20.88 12.08 21.65 12.52 22.41 C 12.97 23.17 13.39 23.73 13.8 24.11 C 14.34 24.6 14.97 25.02 15.68 25.39 C 16.39 25.75 17.02 25.95 17.56 25.98 C 17.86 25.98 18.19 25.93 18.57 25.82 C 18.95 25.71 19.2 25.37 19.34 24.81 C 19.37 24.7 19.45 24.63 19.58 24.61 C 19.71 24.58 19.78 24.65 19.78 24.81 C 19.78 25.03 19.75 25.21 19.68 25.36 C 19.61 25.51 19.54 25.65 19.46 25.79 C 19.1 26.19 18.52 26.41 17.71 26.41 Z M 8.88 12.31 C 9.61 12.04 10.27 11.72 10.86 11.36 C 11.45 11 12.02 10.58 12.56 10.12 C 12.97 9.77 13.41 9.32 13.9 8.76 C 14.39 8.21 14.8 7.63 15.15 7.02 C 15.5 6.41 15.68 5.84 15.68 5.3 C 15.68 4.76 15.44 4.5 14.95 4.5 C 14.73 4.5 14.42 4.59 14.02 4.78 C 13.37 5.13 12.58 5.95 11.63 7.25 C 11.17 7.95 10.71 8.71 10.25 9.52 C 9.79 10.33 9.34 11.26 8.88 12.31 Z" fill="rgb(23, 23, 23)"></path><path d="M 22.97 22.85 C 22.63 22.85 22.32 22.77 22.06 22.62 C 21.79 22.47 21.59 22.18 21.46 21.76 C 21.44 21.67 21.42 21.56 21.39 21.43 C 21.36 21.31 21.35 21.18 21.35 21.04 C 21.35 20.58 21.41 20.07 21.54 19.5 C 21.66 18.93 21.8 18.45 21.95 18.07 C 21.87 18.13 21.74 18.32 21.55 18.64 C 21.36 18.96 21.12 19.34 20.84 19.77 C 20.55 20.2 20.24 20.63 19.88 21.05 C 19.53 21.48 19.15 21.83 18.74 22.11 C 18.33 22.39 17.9 22.52 17.44 22.52 C 17.14 22.52 16.77 22.43 16.34 22.26 C 15.91 22.09 15.6 21.85 15.41 21.55 C 15.22 21.25 15.12 20.87 15.12 20.41 C 15.12 19.86 15.24 19.25 15.49 18.6 C 15.74 17.95 16.05 17.33 16.43 16.76 C 16.56 16.57 16.72 16.34 16.89 16.07 C 17.06 15.8 17.23 15.57 17.4 15.37 C 17.57 15.17 17.69 15.06 17.77 15.04 C 18 14.96 18.26 14.93 18.57 14.93 C 18.89 14.93 19.13 14.97 19.28 15.04 C 19.41 15.1 19.48 15.16 19.48 15.24 C 19.48 15.34 19.4 15.46 19.25 15.61 C 19.04 15.8 18.75 16.09 18.39 16.47 C 18.03 16.85 17.67 17.31 17.32 17.84 C 16.97 18.37 16.68 18.96 16.45 19.61 C 16.26 20.12 16.16 20.57 16.16 20.95 C 16.16 21.62 16.43 21.95 16.96 21.95 C 17.42 21.95 17.9 21.76 18.42 21.38 C 18.93 21 19.43 20.53 19.92 19.98 C 20.41 19.43 20.84 18.88 21.23 18.34 C 21.62 17.8 21.92 17.37 22.13 17.04 C 22.32 16.77 22.53 16.43 22.77 16.01 C 23.01 15.59 23.24 15.18 23.47 14.78 C 23.7 14.38 23.88 14.09 24.01 13.9 C 24.14 13.9 24.35 13.92 24.62 13.97 C 24.9 14.02 25.13 14.1 25.33 14.21 C 25.53 14.32 25.58 14.47 25.49 14.64 C 25.38 14.83 25.2 15.13 24.96 15.52 C 24.72 15.92 24.48 16.32 24.25 16.73 C 24.01 17.14 23.83 17.47 23.69 17.71 C 23.23 18.59 22.94 19.53 22.81 20.54 C 22.79 20.62 22.78 20.69 22.78 20.75 C 22.78 20.82 22.78 20.89 22.78 20.96 C 22.78 21.72 23.04 22.1 23.55 22.1 C 23.84 22.1 24.22 21.93 24.69 21.59 C 25.17 21.25 25.66 20.84 26.16 20.36 C 26.66 19.88 27.12 19.42 27.53 18.98 C 27.94 18.53 28.22 18.2 28.37 17.97 C 28.41 17.91 28.47 17.88 28.54 17.88 C 28.62 17.88 28.68 17.91 28.73 17.97 C 28.78 18.03 28.77 18.1 28.72 18.2 C 28.55 18.52 28.26 18.93 27.85 19.41 C 27.44 19.9 26.99 20.38 26.49 20.87 C 25.99 21.35 25.51 21.77 25.03 22.11 C 24.78 22.3 24.47 22.47 24.09 22.61 C 23.73 22.77 23.35 22.85 22.97 22.85 Z" fill="rgb(23, 23, 23)"></path><path d="M 30.62 22.99 C 29.76 22.99 29.02 22.79 28.39 22.39 C 27.76 21.99 27.45 21.38 27.45 20.56 C 27.45 20.12 27.58 19.59 27.85 18.96 C 28.04 18.52 28.39 18.02 28.91 17.45 C 29.43 16.88 30.02 16.32 30.71 15.78 C 31.39 15.24 32.09 14.79 32.79 14.44 C 33.49 14.09 34.13 13.91 34.7 13.91 C 34.91 13.91 35.1 13.94 35.27 14 C 35.59 14.11 35.82 14.29 35.94 14.54 C 36.06 14.79 36.13 15.04 36.13 15.31 C 36.13 15.56 36.09 15.8 36.02 16.02 C 35.94 16.25 35.85 16.45 35.73 16.62 C 35.39 17.13 34.9 17.59 34.26 17.99 C 33.62 18.39 32.98 18.7 32.32 18.93 C 31.66 19.16 31.13 19.29 30.71 19.33 L 30.65 19.33 C 30.4 19.33 30.28 19.25 30.28 19.1 C 30.28 19 30.36 18.96 30.51 18.96 C 30.97 18.92 31.54 18.71 32.24 18.32 C 32.93 17.93 33.55 17.53 34.08 17.11 C 34.31 16.92 34.58 16.65 34.89 16.31 C 35.2 15.97 35.36 15.63 35.36 15.31 C 35.36 14.97 35.2 14.8 34.87 14.8 C 34.7 14.8 34.52 14.84 34.34 14.91 C 34.16 14.99 34.01 15.04 33.9 15.08 C 33.35 15.35 32.74 15.76 32.07 16.32 C 31.4 16.88 30.8 17.51 30.26 18.2 C 29.72 18.89 29.34 19.59 29.13 20.3 C 29.07 20.45 29.03 20.6 29.02 20.74 C 29 20.88 28.99 21.02 28.99 21.15 C 28.99 21.61 29.14 21.93 29.43 22.12 C 29.72 22.31 30.08 22.41 30.5 22.41 C 31.13 22.41 31.77 22.27 32.44 22 C 33.11 21.72 33.75 21.37 34.38 20.93 C 35.01 20.49 35.58 20.02 36.11 19.52 C 36.63 19.02 37.08 18.53 37.44 18.05 C 37.5 17.97 37.56 17.93 37.64 17.92 C 37.72 17.91 37.76 17.92 37.78 17.96 C 37.86 17.98 37.89 18.03 37.89 18.12 C 37.89 18.21 37.87 18.29 37.83 18.36 C 37.3 19.1 36.66 19.83 35.9 20.53 C 35.15 21.23 34.32 21.82 33.42 22.29 C 32.52 22.76 31.59 22.99 30.62 22.99 Z" fill="rgb(23, 23, 23)"></path><path d="M 39.72 22.99 C 38.86 22.99 38.12 22.79 37.49 22.39 C 36.86 21.99 36.55 21.38 36.55 20.56 C 36.55 20.12 36.68 19.59 36.95 18.96 C 37.14 18.52 37.49 18.02 38.01 17.45 C 38.53 16.88 39.12 16.32 39.81 15.78 C 40.49 15.24 41.19 14.79 41.89 14.44 C 42.59 14.09 43.23 13.91 43.8 13.91 C 44.01 13.91 44.2 13.94 44.37 14 C 44.69 14.11 44.92 14.29 45.04 14.54 C 45.16 14.79 45.23 15.04 45.23 15.31 C 45.23 15.56 45.19 15.8 45.12 16.02 C 45.04 16.25 44.95 16.45 44.83 16.62 C 44.49 17.13 44 17.59 43.36 17.99 C 42.72 18.39 42.08 18.7 41.42 18.93 C 40.76 19.16 40.23 19.29 39.81 19.33 L 39.75 19.33 C 39.5 19.33 39.38 19.25 39.38 19.1 C 39.38 19 39.46 18.96 39.61 18.96 C 40.07 18.92 40.64 18.71 41.34 18.32 C 42.03 17.93 42.65 17.53 43.18 17.11 C 43.41 16.92 43.68 16.65 43.99 16.31 C 44.3 15.97 44.46 15.63 44.46 15.31 C 44.46 14.97 44.3 14.8 43.97 14.8 C 43.8 14.8 43.62 14.84 43.44 14.91 C 43.26 14.99 43.11 15.04 43 15.08 C 42.45 15.35 41.84 15.76 41.17 16.32 C 40.5 16.88 39.9 17.51 39.36 18.2 C 38.82 18.89 38.44 19.59 38.23 20.3 C 38.17 20.45 38.13 20.6 38.12 20.74 C 38.1 20.88 38.09 21.02 38.09 21.15 C 38.09 21.61 38.24 21.93 38.53 22.12 C 38.82 22.31 39.18 22.41 39.6 22.41 C 40.23 22.41 40.87 22.27 41.54 22 C 42.21 21.72 42.85 21.37 43.48 20.93 C 44.11 20.49 44.68 20.02 45.21 19.52 C 45.73 19.02 46.18 18.53 46.54 18.05 C 46.6 17.97 46.66 17.93 46.74 17.92 C 46.82 17.91 46.86 17.92 46.88 17.96 C 46.96 17.98 46.99 18.03 46.99 18.12 C 46.99 18.21 46.97 18.29 46.93 18.36 C 46.4 19.1 45.76 19.83 45 20.53 C 44.25 21.23 43.42 21.82 42.52 22.29 C 41.63 22.76 40.69 22.99 39.72 22.99 Z" fill="rgb(23, 23, 23)"></path><path d="M 45.03 22.93 C 44.9 22.93 44.86 22.86 44.92 22.73 C 44.98 22.62 45.08 22.35 45.23 21.94 C 45.38 21.53 45.56 21.04 45.76 20.47 C 45.96 19.9 46.16 19.31 46.37 18.7 C 46.58 18.09 46.77 17.52 46.95 16.99 C 47.13 16.46 47.28 16.04 47.39 15.73 C 47.43 15.62 47.47 15.45 47.5 15.23 C 47.54 15.01 47.62 14.81 47.74 14.63 C 47.86 14.45 48.08 14.36 48.38 14.36 C 48.95 14.36 49.24 14.49 49.24 14.76 C 49.24 14.86 49.19 15.02 49.1 15.24 C 48.87 15.75 48.62 16.34 48.36 17.01 C 48.09 17.68 47.86 18.3 47.65 18.89 C 47.44 19.48 47.28 19.94 47.16 20.26 C 47.35 19.99 47.66 19.61 48.09 19.12 C 48.52 18.63 49 18.09 49.53 17.52 C 50.06 16.95 50.62 16.4 51.2 15.86 C 51.78 15.33 52.32 14.89 52.83 14.56 C 53.33 14.23 53.77 14.06 54.13 14.06 C 54.59 14.06 54.81 14.31 54.81 14.8 C 54.81 14.97 54.76 15.23 54.67 15.57 C 54.5 16.05 54.28 16.51 54.01 16.95 C 53.74 17.4 53.51 17.87 53.3 18.36 C 52.94 19.25 52.73 19.98 52.67 20.53 C 52.65 20.61 52.64 20.68 52.64 20.74 C 52.64 20.81 52.64 20.88 52.64 20.95 C 52.64 21.71 52.9 22.09 53.41 22.09 C 53.7 22.09 54.08 21.92 54.55 21.58 C 55.03 21.24 55.52 20.83 56.02 20.35 C 56.52 19.87 56.98 19.41 57.38 18.97 C 57.78 18.52 58.05 18.19 58.21 17.96 C 58.27 17.9 58.32 17.87 58.38 17.87 C 58.46 17.87 58.52 17.9 58.57 17.96 C 58.62 18.02 58.62 18.09 58.58 18.19 C 58.41 18.51 58.12 18.92 57.71 19.4 C 57.3 19.89 56.85 20.37 56.35 20.86 C 55.86 21.34 55.37 21.76 54.89 22.1 C 54.6 22.29 54.25 22.46 53.83 22.61 C 53.41 22.76 52.99 22.83 52.57 22.81 C 52.04 22.75 51.66 22.57 51.43 22.25 C 51.2 21.93 51.09 21.56 51.09 21.12 C 51.09 20.61 51.19 20.06 51.39 19.48 C 51.59 18.9 51.81 18.35 52.06 17.84 C 52.31 17.33 52.51 16.94 52.66 16.67 C 52.81 16.37 52.89 16.13 52.89 15.96 C 52.89 15.81 52.82 15.73 52.69 15.73 C 52.56 15.73 52.36 15.82 52.09 15.99 C 51.82 16.16 51.46 16.46 51.01 16.87 C 50.59 17.23 50.14 17.7 49.67 18.28 C 49.19 18.86 48.73 19.46 48.29 20.06 C 47.84 20.67 47.45 21.19 47.12 21.63 C 46.79 22.07 46.55 22.32 46.42 22.4 C 46.32 22.46 46.11 22.55 45.78 22.69 C 45.45 22.86 45.2 22.93 45.03 22.93 Z" fill="rgb(23, 23, 23)"></path><path d="M 64.72 23.5 C 64.34 23.63 63.95 23.7 63.55 23.7 C 63.04 23.7 62.53 23.6 62.02 23.39 C 61.52 23.18 60.99 22.9 60.44 22.56 C 60.12 22.37 59.75 22.2 59.33 22.05 C 58.97 22.3 58.62 22.51 58.29 22.69 C 57.96 22.87 57.66 22.96 57.39 22.96 C 57.24 22.96 57.13 22.94 57.08 22.9 C 56.97 22.84 56.91 22.7 56.91 22.47 C 56.91 22.18 57.05 21.85 57.34 21.47 C 57.63 21.09 58.11 20.9 58.8 20.9 C 59.16 20.9 59.54 20.96 59.94 21.07 C 60.43 20.69 60.73 20.43 60.82 20.3 C 61.6 19.63 62.38 18.93 63.17 18.17 C 63.96 17.42 64.65 16.76 65.24 16.19 C 64.76 16.04 64.34 15.91 63.96 15.82 C 63.58 15.73 63.19 15.65 62.79 15.59 C 62.7 15.57 62.6 15.56 62.5 15.55 C 62.4 15.54 62.31 15.54 62.21 15.54 C 61.77 15.54 61.4 15.62 61.1 15.77 C 60.8 15.92 60.51 16.12 60.24 16.37 C 59.92 16.66 59.6 16.97 59.3 17.33 C 59 17.68 58.71 18.03 58.44 18.37 C 58.38 18.45 58.3 18.56 58.18 18.7 C 58.07 18.84 57.97 18.88 57.89 18.8 C 57.81 18.72 57.78 18.65 57.78 18.57 C 57.78 18.49 57.81 18.42 57.87 18.34 C 58.29 17.77 58.67 17.24 59.03 16.76 C 59.38 16.27 59.64 15.93 59.82 15.72 C 60.18 15.19 60.54 14.83 60.9 14.65 C 61.26 14.47 61.62 14.38 61.98 14.38 C 62.3 14.38 62.64 14.42 62.98 14.51 C 63.32 14.6 63.67 14.69 64.04 14.78 C 64.38 14.86 64.75 14.94 65.14 15.02 C 65.53 15.11 65.9 15.19 66.24 15.26 C 66.39 15.13 66.66 14.96 67.05 14.75 C 67.44 14.54 67.77 14.44 68.04 14.44 C 68.31 14.44 68.44 14.57 68.44 14.84 C 68.44 15.16 68.29 15.45 68 15.71 C 67.7 15.97 67.36 16.16 66.97 16.28 C 66.58 16.4 66.25 16.44 65.98 16.38 C 65.33 16.93 64.55 17.59 63.64 18.36 C 62.73 19.13 61.88 19.87 61.1 20.57 C 60.99 20.65 60.87 20.74 60.74 20.86 C 60.62 20.97 60.48 21.1 60.33 21.23 C 60.48 21.31 60.63 21.37 60.77 21.43 C 60.91 21.49 61.05 21.55 61.18 21.63 C 61.71 21.95 62.22 22.23 62.71 22.46 C 63.2 22.69 63.68 22.8 64.15 22.8 C 64.61 22.8 65.05 22.68 65.49 22.43 C 65.89 22.2 66.38 21.84 66.97 21.33 C 67.56 20.82 68.15 20.27 68.74 19.66 C 69.33 19.05 69.81 18.5 70.17 18 C 70.23 17.92 70.32 17.89 70.46 17.89 C 70.54 17.89 70.6 17.9 70.65 17.93 C 70.7 17.96 70.7 18.01 70.66 18.09 C 70.51 18.36 70.26 18.7 69.9 19.12 C 69.55 19.54 69.14 19.98 68.69 20.45 C 68.23 20.92 67.78 21.35 67.32 21.76 C 66.86 22.17 66.45 22.51 66.09 22.77 C 65.75 23.02 65.47 23.19 65.26 23.3 C 65.05 23.39 64.87 23.46 64.72 23.5 Z" fill="rgb(23, 23, 23)"></path><path d="M 42.25 10.83 C 41.15 11.44 39.73 11.51 38.49 11.39 L 38.49 3.82 C 39.38 6.32 40.06 6.14 40.06 6.14 C 40.06 6.14 38.6 8.46 40.2 8.96 C 41.79 9.46 40.88 7 40.88 7 C 42.73 6.47 43.43 5.81 43.47 5.77 C 41.98 8.51 42.25 10.83 42.25 10.83 Z" fill="rgb(255, 200, 36)"></path><path d="M 34.74 10.83 C 35.84 11.44 37.261 11.51 38.501 11.39 L 38.501 3.82 C 37.611 6.32 36.931 6.14 36.931 6.14 C 36.931 6.14 38.391 8.46 36.791 8.96 C 35.2 9.46 36.111 7 36.111 7 C 34.261 6.47 33.56 5.81 33.52 5.77 C 35.011 8.51 34.74 10.83 34.74 10.83 Z" fill="rgb(255, 200, 36)"></path><path d="M 35.03 10.83 C 35.03 10.83 38.31 12.59 41.94 10.83 L 38.5 9.75 Z" fill="rgb(255, 200, 36)"></path></g></svg>